<mxfile host="65bd71144e" pages="2">
    <diagram id="YDHPcrjkJ_hrPR7L1dNF" name="v0">
        <mxGraphModel dx="2210" dy="3490" grid="1" gridSize="10" guides="1" tooltips="1" connect="1" arrows="1" fold="1" page="1" pageScale="1" pageWidth="827" pageHeight="1169" math="0" shadow="0">
            <root>
                <mxCell id="NjZC5WjNETesjFtiS9zZ-0"/>
                <mxCell id="NjZC5WjNETesjFtiS9zZ-1" parent="NjZC5WjNETesjFtiS9zZ-0"/>
                <mxCell id="ikAkHZJrHeVKkYMlM8vY-0" value="&lt;div style=&quot;font-size: 6px&quot;&gt;&lt;span style=&quot;font-size: 6px&quot;&gt;6&lt;/span&gt;&lt;/div&gt;" style="rounded=0;whiteSpace=wrap;html=1;strokeColor=#666666;fontSize=6;fontColor=#333333;fillColor=none;dashed=1;verticalAlign=top;align=left;spacingTop=-5;" parent="NjZC5WjNETesjFtiS9zZ-1" vertex="1">
                    <mxGeometry x="380" y="290" width="220" height="240" as="geometry"/>
                </mxCell>
                <mxCell id="ikAkHZJrHeVKkYMlM8vY-1" value="&lt;div style=&quot;font-size: 6px&quot;&gt;&lt;span style=&quot;font-size: 6px&quot;&gt;4&lt;/span&gt;&lt;/div&gt;" style="rounded=0;whiteSpace=wrap;html=1;strokeColor=#666666;fontSize=6;fontColor=#333333;fillColor=none;dashed=1;verticalAlign=top;align=left;spacingTop=-5;" parent="NjZC5WjNETesjFtiS9zZ-1" vertex="1">
                    <mxGeometry x="40" y="290" width="160" height="240" as="geometry"/>
                </mxCell>
                <mxCell id="ikAkHZJrHeVKkYMlM8vY-2" value="&lt;div style=&quot;font-size: 6px&quot;&gt;&lt;span style=&quot;font-size: 6px&quot;&gt;5&lt;/span&gt;&lt;/div&gt;" style="rounded=0;whiteSpace=wrap;html=1;strokeColor=#666666;fontSize=6;fontColor=#333333;fillColor=none;dashed=1;verticalAlign=top;align=left;spacingTop=-5;" parent="NjZC5WjNETesjFtiS9zZ-1" vertex="1">
                    <mxGeometry x="210" y="290" width="150" height="240" as="geometry"/>
                </mxCell>
                <mxCell id="ikAkHZJrHeVKkYMlM8vY-3" value="&lt;div style=&quot;font-size: 6px;&quot;&gt;&lt;span style=&quot;font-size: 6px;&quot;&gt;1&lt;/span&gt;&lt;/div&gt;" style="rounded=0;whiteSpace=wrap;html=1;strokeColor=#666666;fontSize=6;fontColor=#333333;fillColor=none;dashed=1;verticalAlign=top;align=left;spacingTop=-5;" parent="NjZC5WjNETesjFtiS9zZ-1" vertex="1">
                    <mxGeometry x="40" y="40" width="80" height="240" as="geometry"/>
                </mxCell>
                <mxCell id="ikAkHZJrHeVKkYMlM8vY-4" value="&lt;div style=&quot;font-size: 6px&quot;&gt;&lt;span style=&quot;font-size: 6px&quot;&gt;2&lt;/span&gt;&lt;/div&gt;" style="rounded=0;whiteSpace=wrap;html=1;strokeColor=#666666;fontSize=6;fontColor=#333333;fillColor=none;dashed=1;verticalAlign=top;align=left;spacingTop=-5;" parent="NjZC5WjNETesjFtiS9zZ-1" vertex="1">
                    <mxGeometry x="130" y="40" width="80" height="240" as="geometry"/>
                </mxCell>
                <mxCell id="ikAkHZJrHeVKkYMlM8vY-5" value="&lt;div style=&quot;font-size: 6px&quot;&gt;&lt;span style=&quot;font-size: 6px&quot;&gt;3&lt;/span&gt;&lt;/div&gt;" style="rounded=0;whiteSpace=wrap;html=1;strokeColor=#666666;fontSize=6;fontColor=#333333;fillColor=none;dashed=1;verticalAlign=top;align=left;spacingTop=-5;" parent="NjZC5WjNETesjFtiS9zZ-1" vertex="1">
                    <mxGeometry x="220" y="40" width="140" height="240" as="geometry"/>
                </mxCell>
                <mxCell id="ikAkHZJrHeVKkYMlM8vY-6" value="a&lt;br style=&quot;font-size: 6px;&quot;&gt;&lt;b style=&quot;font-size: 6px;&quot;&gt;a[a]&lt;/b&gt;" style="rounded=0;whiteSpace=wrap;html=1;strokeColor=#00CC00;fontSize=6;" parent="NjZC5WjNETesjFtiS9zZ-1" vertex="1">
                    <mxGeometry x="60" y="60" width="40" height="40" as="geometry"/>
                </mxCell>
                <mxCell id="ikAkHZJrHeVKkYMlM8vY-7" value="b&lt;br style=&quot;font-size: 6px;&quot;&gt;&lt;b style=&quot;font-size: 6px;&quot;&gt;b[b]&lt;/b&gt;" style="rounded=0;whiteSpace=wrap;html=1;strokeColor=#00CC00;fontSize=6;" parent="NjZC5WjNETesjFtiS9zZ-1" vertex="1">
                    <mxGeometry x="60" y="120" width="40" height="40" as="geometry"/>
                </mxCell>
                <mxCell id="ikAkHZJrHeVKkYMlM8vY-8" value="c&lt;br style=&quot;font-size: 6px;&quot;&gt;&lt;b style=&quot;font-size: 6px;&quot;&gt;a[a,c]&lt;/b&gt;" style="rounded=0;orthogonalLoop=1;jettySize=auto;html=1;endArrow=open;endFill=0;strokeColor=#00CC00;fontSize=6;" parent="NjZC5WjNETesjFtiS9zZ-1" source="ikAkHZJrHeVKkYMlM8vY-9" target="ikAkHZJrHeVKkYMlM8vY-10" edge="1">
                    <mxGeometry relative="1" as="geometry"/>
                </mxCell>
                <mxCell id="ikAkHZJrHeVKkYMlM8vY-9" value="a&lt;br style=&quot;font-size: 6px;&quot;&gt;a[a]" style="rounded=0;whiteSpace=wrap;html=1;fontSize=6;" parent="NjZC5WjNETesjFtiS9zZ-1" vertex="1">
                    <mxGeometry x="150" y="60" width="40" height="40" as="geometry"/>
                </mxCell>
                <mxCell id="ikAkHZJrHeVKkYMlM8vY-10" value="b&lt;br style=&quot;font-size: 6px;&quot;&gt;&lt;strike style=&quot;font-size: 6px;&quot;&gt;b[b]&lt;/strike&gt;&lt;br style=&quot;font-size: 6px;&quot;&gt;&lt;b style=&quot;font-size: 6px;&quot;&gt;a[a,c,b]&lt;/b&gt;" style="rounded=0;whiteSpace=wrap;html=1;fontSize=6;" parent="NjZC5WjNETesjFtiS9zZ-1" vertex="1">
                    <mxGeometry x="150" y="140" width="40" height="40" as="geometry"/>
                </mxCell>
                <mxCell id="ikAkHZJrHeVKkYMlM8vY-11" value="c&lt;br style=&quot;font-size: 6px;&quot;&gt;a[a,c]" style="rounded=0;orthogonalLoop=1;jettySize=auto;html=1;endArrow=open;endFill=0;fontSize=6;" parent="NjZC5WjNETesjFtiS9zZ-1" source="ikAkHZJrHeVKkYMlM8vY-12" target="ikAkHZJrHeVKkYMlM8vY-13" edge="1">
                    <mxGeometry relative="1" as="geometry"/>
                </mxCell>
                <mxCell id="ikAkHZJrHeVKkYMlM8vY-12" value="a&lt;br style=&quot;font-size: 6px;&quot;&gt;a[a]" style="rounded=0;whiteSpace=wrap;html=1;fontSize=6;" parent="NjZC5WjNETesjFtiS9zZ-1" vertex="1">
                    <mxGeometry x="240" y="60" width="40" height="40" as="geometry"/>
                </mxCell>
                <mxCell id="ikAkHZJrHeVKkYMlM8vY-13" value="b&lt;br style=&quot;font-size: 6px;&quot;&gt;a[a,c,b]" style="rounded=0;whiteSpace=wrap;html=1;fontSize=6;" parent="NjZC5WjNETesjFtiS9zZ-1" vertex="1">
                    <mxGeometry x="240" y="140" width="40" height="40" as="geometry"/>
                </mxCell>
                <mxCell id="ikAkHZJrHeVKkYMlM8vY-14" value="d&lt;br style=&quot;font-size: 6px;&quot;&gt;&lt;b style=&quot;font-size: 6px;&quot;&gt;d[d]&lt;/b&gt;" style="rounded=0;whiteSpace=wrap;html=1;strokeColor=#00CC00;fontSize=6;" parent="NjZC5WjNETesjFtiS9zZ-1" vertex="1">
                    <mxGeometry x="150" y="200" width="40" height="40" as="geometry"/>
                </mxCell>
                <mxCell id="ikAkHZJrHeVKkYMlM8vY-15" value="d&lt;br style=&quot;font-size: 6px;&quot;&gt;&lt;strike style=&quot;font-size: 6px;&quot;&gt;d[d]&lt;/strike&gt;&lt;br style=&quot;font-size: 6px;&quot;&gt;&lt;b style=&quot;font-size: 6px;&quot;&gt;a[a,c,b,e,d]&lt;/b&gt;" style="rounded=0;whiteSpace=wrap;html=1;fontSize=6;" parent="NjZC5WjNETesjFtiS9zZ-1" vertex="1">
                    <mxGeometry x="240" y="220" width="40" height="40" as="geometry"/>
                </mxCell>
                <mxCell id="ikAkHZJrHeVKkYMlM8vY-16" value="e&lt;br style=&quot;font-size: 6px;&quot;&gt;&lt;b style=&quot;font-size: 6px;&quot;&gt;a[a,c,b,e]&lt;/b&gt;" style="rounded=0;orthogonalLoop=1;jettySize=auto;html=1;endArrow=open;endFill=0;strokeColor=#00CC00;fontSize=6;" parent="NjZC5WjNETesjFtiS9zZ-1" source="ikAkHZJrHeVKkYMlM8vY-13" target="ikAkHZJrHeVKkYMlM8vY-15" edge="1">
                    <mxGeometry relative="1" as="geometry"/>
                </mxCell>
                <mxCell id="ikAkHZJrHeVKkYMlM8vY-17" value="x&lt;br style=&quot;font-size: 6px;&quot;&gt;&lt;b style=&quot;font-size: 6px;&quot;&gt;x[x]&lt;/b&gt;" style="rounded=0;whiteSpace=wrap;html=1;strokeColor=#00CC00;fontSize=6;" parent="NjZC5WjNETesjFtiS9zZ-1" vertex="1">
                    <mxGeometry x="300" y="60" width="40" height="40" as="geometry"/>
                </mxCell>
                <mxCell id="ikAkHZJrHeVKkYMlM8vY-18" value="c&lt;br style=&quot;font-size: 6px&quot;&gt;&lt;strike style=&quot;font-size: 6px&quot;&gt;a[a,c]&lt;/strike&gt;&lt;br style=&quot;font-size: 6px&quot;&gt;&lt;span style=&quot;font-size: 6px&quot;&gt;&lt;b style=&quot;font-size: 6px&quot;&gt;x[x,y,a,c]&lt;/b&gt;&lt;/span&gt;" style="rounded=0;orthogonalLoop=1;jettySize=auto;html=1;endArrow=open;endFill=0;fontSize=6;" parent="NjZC5WjNETesjFtiS9zZ-1" source="ikAkHZJrHeVKkYMlM8vY-19" target="ikAkHZJrHeVKkYMlM8vY-20" edge="1">
                    <mxGeometry relative="1" as="geometry"/>
                </mxCell>
                <mxCell id="ikAkHZJrHeVKkYMlM8vY-19" value="a&lt;br style=&quot;font-size: 6px;&quot;&gt;&lt;strike style=&quot;font-size: 6px;&quot;&gt;a[a]&lt;/strike&gt;&lt;br style=&quot;font-size: 6px;&quot;&gt;&lt;b style=&quot;font-size: 6px;&quot;&gt;x[x,y,a]&lt;/b&gt;" style="rounded=0;whiteSpace=wrap;html=1;fontSize=6;" parent="NjZC5WjNETesjFtiS9zZ-1" vertex="1">
                    <mxGeometry x="60" y="310" width="40" height="40" as="geometry"/>
                </mxCell>
                <mxCell id="ikAkHZJrHeVKkYMlM8vY-20" value="b&lt;br style=&quot;font-size: 6px;&quot;&gt;&lt;strike style=&quot;font-size: 6px;&quot;&gt;a[a,c,b]&lt;/strike&gt;&lt;br style=&quot;font-size: 6px;&quot;&gt;&lt;b style=&quot;font-size: 6px;&quot;&gt;x[x,y,a,c,b]&lt;/b&gt;" style="rounded=0;whiteSpace=wrap;html=1;fontSize=6;" parent="NjZC5WjNETesjFtiS9zZ-1" vertex="1">
                    <mxGeometry x="60" y="390" width="40" height="40" as="geometry"/>
                </mxCell>
                <mxCell id="ikAkHZJrHeVKkYMlM8vY-21" value="d&lt;br style=&quot;font-size: 6px;&quot;&gt;&lt;strike style=&quot;font-size: 6px;&quot;&gt;a[a,c,b,e,d]&lt;/strike&gt;&lt;br style=&quot;font-size: 6px;&quot;&gt;&lt;b style=&quot;font-size: 6px;&quot;&gt;x[x,y,a,c,b,e,d]&lt;/b&gt;" style="rounded=0;whiteSpace=wrap;html=1;fontSize=6;" parent="NjZC5WjNETesjFtiS9zZ-1" vertex="1">
                    <mxGeometry x="60" y="470" width="40" height="40" as="geometry"/>
                </mxCell>
                <mxCell id="ikAkHZJrHeVKkYMlM8vY-22" value="e&lt;br style=&quot;font-size: 6px&quot;&gt;&lt;strike style=&quot;font-size: 6px&quot;&gt;a[a,c,b,e]&lt;/strike&gt;&lt;br style=&quot;font-size: 6px&quot;&gt;&lt;span style=&quot;font-size: 6px&quot;&gt;&lt;b style=&quot;font-size: 6px&quot;&gt;x[x,y,a,c,b,e]&lt;/b&gt;&lt;/span&gt;" style="rounded=0;orthogonalLoop=1;jettySize=auto;html=1;endArrow=open;endFill=0;fontSize=6;" parent="NjZC5WjNETesjFtiS9zZ-1" source="ikAkHZJrHeVKkYMlM8vY-20" target="ikAkHZJrHeVKkYMlM8vY-21" edge="1">
                    <mxGeometry relative="1" as="geometry"/>
                </mxCell>
                <mxCell id="ikAkHZJrHeVKkYMlM8vY-23" value="x&lt;br style=&quot;font-size: 6px;&quot;&gt;x[x]" style="rounded=0;whiteSpace=wrap;html=1;fontSize=6;" parent="NjZC5WjNETesjFtiS9zZ-1" vertex="1">
                    <mxGeometry x="140" y="310" width="40" height="40" as="geometry"/>
                </mxCell>
                <mxCell id="ikAkHZJrHeVKkYMlM8vY-24" value="y&lt;br style=&quot;font-size: 6px;&quot;&gt;&lt;b style=&quot;font-size: 6px;&quot;&gt;x[x,y&lt;/b&gt;]" style="rounded=0;orthogonalLoop=1;jettySize=auto;html=1;endArrow=open;endFill=0;strokeColor=#00CC00;fontSize=6;" parent="NjZC5WjNETesjFtiS9zZ-1" source="ikAkHZJrHeVKkYMlM8vY-23" target="ikAkHZJrHeVKkYMlM8vY-19" edge="1">
                    <mxGeometry relative="1" as="geometry">
                        <mxPoint x="160" y="430" as="targetPoint"/>
                    </mxGeometry>
                </mxCell>
                <mxCell id="ikAkHZJrHeVKkYMlM8vY-25" value="c&lt;br style=&quot;font-size: 6px;&quot;&gt;a[a,c]" style="rounded=0;orthogonalLoop=1;jettySize=auto;html=1;endArrow=open;endFill=0;fontSize=6;" parent="NjZC5WjNETesjFtiS9zZ-1" source="ikAkHZJrHeVKkYMlM8vY-26" target="ikAkHZJrHeVKkYMlM8vY-27" edge="1">
                    <mxGeometry relative="1" as="geometry"/>
                </mxCell>
                <mxCell id="ikAkHZJrHeVKkYMlM8vY-26" value="a&lt;br style=&quot;font-size: 6px;&quot;&gt;&lt;span style=&quot;font-size: 6px;&quot;&gt;a[a]&lt;/span&gt;" style="rounded=0;whiteSpace=wrap;html=1;fontSize=6;" parent="NjZC5WjNETesjFtiS9zZ-1" vertex="1">
                    <mxGeometry x="230" y="310" width="40" height="40" as="geometry"/>
                </mxCell>
                <mxCell id="ikAkHZJrHeVKkYMlM8vY-27" value="b&lt;br style=&quot;font-size: 6px&quot;&gt;a[a,c,b]&lt;br style=&quot;font-size: 6px&quot;&gt;&lt;b style=&quot;font-size: 6px&quot;&gt;x[x,y,b]&lt;/b&gt;" style="rounded=0;whiteSpace=wrap;html=1;fontSize=6;" parent="NjZC5WjNETesjFtiS9zZ-1" vertex="1">
                    <mxGeometry x="230" y="390" width="40" height="40" as="geometry"/>
                </mxCell>
                <mxCell id="ikAkHZJrHeVKkYMlM8vY-28" value="d&lt;br style=&quot;font-size: 6px;&quot;&gt;a[a,c,b,e,d]&lt;br style=&quot;font-size: 6px;&quot;&gt;&lt;b style=&quot;font-size: 6px;&quot;&gt;x[x,y,b,e,d]&lt;/b&gt;" style="rounded=0;whiteSpace=wrap;html=1;fontSize=6;" parent="NjZC5WjNETesjFtiS9zZ-1" vertex="1">
                    <mxGeometry x="230" y="470" width="40" height="40" as="geometry"/>
                </mxCell>
                <mxCell id="ikAkHZJrHeVKkYMlM8vY-29" value="e&lt;br style=&quot;font-size: 6px&quot;&gt;a[a,c,b,e]&lt;br style=&quot;font-size: 6px&quot;&gt;&lt;span style=&quot;font-size: 6px&quot;&gt;&lt;b style=&quot;font-size: 6px&quot;&gt;x[x,y,b,e]&lt;/b&gt;&lt;/span&gt;" style="rounded=0;orthogonalLoop=1;jettySize=auto;html=1;endArrow=open;endFill=0;fontSize=6;" parent="NjZC5WjNETesjFtiS9zZ-1" source="ikAkHZJrHeVKkYMlM8vY-27" target="ikAkHZJrHeVKkYMlM8vY-28" edge="1">
                    <mxGeometry relative="1" as="geometry"/>
                </mxCell>
                <mxCell id="ikAkHZJrHeVKkYMlM8vY-30" value="x&lt;br style=&quot;font-size: 6px;&quot;&gt;x[x]" style="rounded=0;whiteSpace=wrap;html=1;fontSize=6;" parent="NjZC5WjNETesjFtiS9zZ-1" vertex="1">
                    <mxGeometry x="300" y="390" width="40" height="40" as="geometry"/>
                </mxCell>
                <mxCell id="ikAkHZJrHeVKkYMlM8vY-31" value="y&lt;br style=&quot;font-size: 6px;&quot;&gt;&lt;b style=&quot;font-size: 6px;&quot;&gt;x[x,y]&lt;/b&gt;" style="rounded=0;orthogonalLoop=1;jettySize=auto;html=1;endArrow=open;endFill=0;strokeColor=#00CC00;fontSize=6;" parent="NjZC5WjNETesjFtiS9zZ-1" source="ikAkHZJrHeVKkYMlM8vY-30" target="ikAkHZJrHeVKkYMlM8vY-27" edge="1">
                    <mxGeometry relative="1" as="geometry">
                        <mxPoint x="330" y="430" as="targetPoint"/>
                    </mxGeometry>
                </mxCell>
                <mxCell id="ikAkHZJrHeVKkYMlM8vY-32" value="c&lt;br style=&quot;font-size: 6px;&quot;&gt;a[a,c]" style="rounded=0;orthogonalLoop=1;jettySize=auto;html=1;endArrow=open;endFill=0;fontSize=6;" parent="NjZC5WjNETesjFtiS9zZ-1" source="ikAkHZJrHeVKkYMlM8vY-33" target="ikAkHZJrHeVKkYMlM8vY-34" edge="1">
                    <mxGeometry relative="1" as="geometry"/>
                </mxCell>
                <mxCell id="ikAkHZJrHeVKkYMlM8vY-33" value="a&lt;br style=&quot;font-size: 6px;&quot;&gt;&lt;span style=&quot;font-size: 6px;&quot;&gt;a[a]&lt;/span&gt;" style="rounded=0;whiteSpace=wrap;html=1;fontSize=6;" parent="NjZC5WjNETesjFtiS9zZ-1" vertex="1">
                    <mxGeometry x="400" y="310" width="40" height="40" as="geometry"/>
                </mxCell>
                <mxCell id="ikAkHZJrHeVKkYMlM8vY-34" value="b&lt;br style=&quot;font-size: 6px&quot;&gt;a[a,c,b]&lt;br style=&quot;font-size: 6px&quot;&gt;x[x,y,b]&lt;b style=&quot;font-size: 6px&quot;&gt;&lt;br&gt;&lt;/b&gt;" style="rounded=0;whiteSpace=wrap;html=1;fontSize=6;" parent="NjZC5WjNETesjFtiS9zZ-1" vertex="1">
                    <mxGeometry x="400" y="390" width="40" height="40" as="geometry"/>
                </mxCell>
                <mxCell id="ikAkHZJrHeVKkYMlM8vY-35" value="d&lt;br style=&quot;font-size: 6px&quot;&gt;a[a,c,b,e,d]&lt;br style=&quot;font-size: 6px&quot;&gt;x[x,y,b,e,d]" style="rounded=0;whiteSpace=wrap;html=1;fontSize=6;" parent="NjZC5WjNETesjFtiS9zZ-1" vertex="1">
                    <mxGeometry x="400" y="470" width="40" height="40" as="geometry"/>
                </mxCell>
                <mxCell id="ikAkHZJrHeVKkYMlM8vY-36" value="e&lt;br style=&quot;font-size: 6px&quot;&gt;a[a,c,b,e]&lt;br style=&quot;font-size: 6px&quot;&gt;&lt;span style=&quot;font-size: 6px&quot;&gt;x[x,y,b,e]&lt;/span&gt;&lt;span style=&quot;background-color: rgb(248 , 249 , 250) ; font-size: 6px&quot;&gt;&lt;br style=&quot;font-size: 6px&quot;&gt;&lt;/span&gt;" style="rounded=0;orthogonalLoop=1;jettySize=auto;html=1;endArrow=open;endFill=0;fontSize=6;" parent="NjZC5WjNETesjFtiS9zZ-1" source="ikAkHZJrHeVKkYMlM8vY-34" target="ikAkHZJrHeVKkYMlM8vY-35" edge="1">
                    <mxGeometry relative="1" as="geometry"/>
                </mxCell>
                <mxCell id="ikAkHZJrHeVKkYMlM8vY-37" value="x&lt;br style=&quot;font-size: 6px&quot;&gt;x[x]&lt;br style=&quot;font-size: 6px&quot;&gt;&lt;b style=&quot;font-size: 6px&quot;&gt;a[a,c,b,e,d,z,x]&lt;br&gt;&lt;/b&gt;" style="rounded=0;whiteSpace=wrap;html=1;fontSize=6;" parent="NjZC5WjNETesjFtiS9zZ-1" vertex="1">
                    <mxGeometry x="540" y="390" width="40" height="40" as="geometry"/>
                </mxCell>
                <mxCell id="ikAkHZJrHeVKkYMlM8vY-38" value="y&lt;br style=&quot;font-size: 6px&quot;&gt;x[x,y]&lt;br style=&quot;font-size: 6px&quot;&gt;&lt;b style=&quot;font-size: 6px&quot;&gt;a[a,c,b,e,d,z,x,y]&lt;br&gt;&lt;/b&gt;" style="rounded=0;orthogonalLoop=1;jettySize=auto;html=1;endArrow=open;endFill=0;fontSize=6;" parent="NjZC5WjNETesjFtiS9zZ-1" source="ikAkHZJrHeVKkYMlM8vY-37" target="ikAkHZJrHeVKkYMlM8vY-34" edge="1">
                    <mxGeometry relative="1" as="geometry">
                        <mxPoint x="500" y="430" as="targetPoint"/>
                    </mxGeometry>
                </mxCell>
                <mxCell id="ikAkHZJrHeVKkYMlM8vY-39" value="z&lt;br style=&quot;font-size: 6px&quot;&gt;&lt;b style=&quot;font-size: 6px&quot;&gt;a[a,c,b,e,d,z]&lt;br style=&quot;font-size: 6px&quot;&gt;x[x,y,b,e,d,z]&lt;/b&gt;&lt;b style=&quot;font-size: 6px&quot;&gt;&lt;br style=&quot;font-size: 6px&quot;&gt;&lt;/b&gt;" style="rounded=0;orthogonalLoop=1;jettySize=auto;html=1;endArrow=open;endFill=0;fontSize=6;strokeColor=#00CC00;" parent="NjZC5WjNETesjFtiS9zZ-1" source="ikAkHZJrHeVKkYMlM8vY-35" target="ikAkHZJrHeVKkYMlM8vY-37" edge="1">
                    <mxGeometry relative="1" as="geometry">
                        <mxPoint x="500" y="430" as="targetPoint"/>
                    </mxGeometry>
                </mxCell>
                <mxCell id="ikAkHZJrHeVKkYMlM8vY-40" value="&lt;b style=&quot;&quot;&gt;&lt;font color=&quot;#ff3333&quot;&gt;a[&lt;strike&gt;a,c,&lt;/strike&gt;b,e,d,z,x,y]z&lt;/font&gt;&lt;/b&gt;" style="rounded=0;whiteSpace=wrap;html=1;strokeColor=#FF3333;fillColor=none;fontSize=6;fontColor=#000000;align=center;labelBackgroundColor=#ffffff;" parent="NjZC5WjNETesjFtiS9zZ-1" vertex="1">
                    <mxGeometry x="450" y="390" width="60" height="10" as="geometry"/>
                </mxCell>
                <mxCell id="ikAkHZJrHeVKkYMlM8vY-41" value="&lt;b&gt;&lt;font color=&quot;#ff3333&quot;&gt;x[x,y,b,e,d,z]z&lt;/font&gt;&lt;/b&gt;" style="rounded=0;whiteSpace=wrap;html=1;strokeColor=#FF3333;fillColor=none;fontSize=6;fontColor=#000000;align=center;labelBackgroundColor=#ffffff;" parent="NjZC5WjNETesjFtiS9zZ-1" vertex="1">
                    <mxGeometry x="520" y="445" width="46" height="10" as="geometry"/>
                </mxCell>
                <mxCell id="ikAkHZJrHeVKkYMlM8vY-42" value="&lt;div style=&quot;font-size: 6px&quot;&gt;7&lt;/div&gt;" style="rounded=0;whiteSpace=wrap;html=1;strokeColor=#666666;fontSize=6;fontColor=#333333;fillColor=none;dashed=1;verticalAlign=top;align=left;spacingTop=-5;" parent="NjZC5WjNETesjFtiS9zZ-1" vertex="1">
                    <mxGeometry x="620" y="290" width="150" height="240" as="geometry"/>
                </mxCell>
                <mxCell id="ikAkHZJrHeVKkYMlM8vY-43" value="c&lt;br style=&quot;font-size: 6px;&quot;&gt;a[a,c]" style="rounded=0;orthogonalLoop=1;jettySize=auto;html=1;endArrow=open;endFill=0;fontSize=6;" parent="NjZC5WjNETesjFtiS9zZ-1" source="ikAkHZJrHeVKkYMlM8vY-44" target="ikAkHZJrHeVKkYMlM8vY-45" edge="1">
                    <mxGeometry relative="1" as="geometry"/>
                </mxCell>
                <mxCell id="ikAkHZJrHeVKkYMlM8vY-44" value="a&lt;br style=&quot;font-size: 6px;&quot;&gt;&lt;span style=&quot;font-size: 6px;&quot;&gt;a[a]&lt;/span&gt;" style="rounded=0;whiteSpace=wrap;html=1;fontSize=6;" parent="NjZC5WjNETesjFtiS9zZ-1" vertex="1">
                    <mxGeometry x="640" y="310" width="40" height="40" as="geometry"/>
                </mxCell>
                <mxCell id="ikAkHZJrHeVKkYMlM8vY-45" value="b&lt;br style=&quot;font-size: 6px&quot;&gt;a[a,c,b]" style="rounded=0;whiteSpace=wrap;html=1;fontSize=6;" parent="NjZC5WjNETesjFtiS9zZ-1" vertex="1">
                    <mxGeometry x="690" y="390" width="40" height="40" as="geometry"/>
                </mxCell>
                <mxCell id="ikAkHZJrHeVKkYMlM8vY-46" value="d&lt;br style=&quot;font-size: 6px&quot;&gt;a[a,c,b,e,d]&lt;br style=&quot;font-size: 6px&quot;&gt;&lt;b style=&quot;font-size: 6px&quot;&gt;a[a,y,d]&lt;/b&gt;" style="rounded=0;whiteSpace=wrap;html=1;fontSize=6;" parent="NjZC5WjNETesjFtiS9zZ-1" vertex="1">
                    <mxGeometry x="640" y="470" width="40" height="40" as="geometry"/>
                </mxCell>
                <mxCell id="ikAkHZJrHeVKkYMlM8vY-47" value="e&lt;br style=&quot;font-size: 6px&quot;&gt;a[a,c,b,e]" style="rounded=0;orthogonalLoop=1;jettySize=auto;html=1;endArrow=open;endFill=0;fontSize=6;" parent="NjZC5WjNETesjFtiS9zZ-1" source="ikAkHZJrHeVKkYMlM8vY-45" target="ikAkHZJrHeVKkYMlM8vY-46" edge="1">
                    <mxGeometry relative="1" as="geometry"/>
                </mxCell>
                <mxCell id="ikAkHZJrHeVKkYMlM8vY-48" value="y&lt;br style=&quot;font-size: 6px&quot;&gt;&lt;b style=&quot;font-size: 6px&quot;&gt;a[a,y]&lt;/b&gt;" style="rounded=0;orthogonalLoop=1;jettySize=auto;html=1;endArrow=open;endFill=0;strokeColor=#00CC00;fontSize=6;" parent="NjZC5WjNETesjFtiS9zZ-1" source="ikAkHZJrHeVKkYMlM8vY-44" target="ikAkHZJrHeVKkYMlM8vY-46" edge="1">
                    <mxGeometry relative="1" as="geometry">
                        <mxPoint x="740" y="430" as="targetPoint"/>
                    </mxGeometry>
                </mxCell>
                <mxCell id="ikAkHZJrHeVKkYMlM8vY-49" value="&lt;div style=&quot;font-size: 6px&quot;&gt;8&lt;/div&gt;" style="rounded=0;whiteSpace=wrap;html=1;strokeColor=#666666;fontSize=6;fontColor=#333333;fillColor=none;dashed=1;verticalAlign=top;align=left;spacingTop=-5;" parent="NjZC5WjNETesjFtiS9zZ-1" vertex="1">
                    <mxGeometry x="40" y="540" width="80" height="160" as="geometry"/>
                </mxCell>
                <mxCell id="ikAkHZJrHeVKkYMlM8vY-50" value="a&lt;br style=&quot;font-size: 6px&quot;&gt;&lt;b style=&quot;font-size: 6px&quot;&gt;a[a]&lt;/b&gt;" style="rounded=0;orthogonalLoop=1;jettySize=auto;html=1;endArrow=open;endFill=0;strokeColor=#00CC00;fontSize=6;" parent="NjZC5WjNETesjFtiS9zZ-1" source="ikAkHZJrHeVKkYMlM8vY-51" target="ikAkHZJrHeVKkYMlM8vY-52" edge="1">
                    <mxGeometry relative="1" as="geometry">
                        <mxPoint x="80" y="640" as="targetPoint"/>
                    </mxGeometry>
                </mxCell>
                <mxCell id="ikAkHZJrHeVKkYMlM8vY-51" value="(not getted)" style="rounded=0;whiteSpace=wrap;html=1;fontSize=6;fillColor=#f5f5f5;strokeColor=#666666;fontColor=#333333;dashed=1;" parent="NjZC5WjNETesjFtiS9zZ-1" vertex="1">
                    <mxGeometry x="60" y="560" width="40" height="40" as="geometry"/>
                </mxCell>
                <mxCell id="ikAkHZJrHeVKkYMlM8vY-52" value="(not getted)" style="rounded=0;whiteSpace=wrap;html=1;fontSize=6;fillColor=#f5f5f5;strokeColor=#666666;fontColor=#333333;dashed=1;" parent="NjZC5WjNETesjFtiS9zZ-1" vertex="1">
                    <mxGeometry x="60" y="640" width="40" height="40" as="geometry"/>
                </mxCell>
                <mxCell id="ikAkHZJrHeVKkYMlM8vY-53" value="&lt;div style=&quot;font-size: 6px&quot;&gt;9&lt;/div&gt;" style="rounded=0;whiteSpace=wrap;html=1;strokeColor=#666666;fontSize=6;fontColor=#333333;fillColor=none;dashed=1;verticalAlign=top;align=left;spacingTop=-5;" parent="NjZC5WjNETesjFtiS9zZ-1" vertex="1">
                    <mxGeometry x="130" y="540" width="80" height="160" as="geometry"/>
                </mxCell>
                <mxCell id="ikAkHZJrHeVKkYMlM8vY-54" value="a&lt;br style=&quot;font-size: 6px&quot;&gt;&lt;span style=&quot;font-size: 6px&quot;&gt;&lt;strike&gt;a[a]&lt;/strike&gt;&lt;br&gt;&lt;b&gt;b[b.a]&lt;/b&gt;&lt;br&gt;&lt;/span&gt;" style="rounded=0;orthogonalLoop=1;jettySize=auto;html=1;endArrow=open;endFill=0;fontSize=6;" parent="NjZC5WjNETesjFtiS9zZ-1" source="ikAkHZJrHeVKkYMlM8vY-56" target="ikAkHZJrHeVKkYMlM8vY-55" edge="1">
                    <mxGeometry relative="1" as="geometry">
                        <mxPoint x="170" y="640" as="targetPoint"/>
                        <mxPoint x="170" y="600" as="sourcePoint"/>
                    </mxGeometry>
                </mxCell>
                <mxCell id="ikAkHZJrHeVKkYMlM8vY-55" value="(not getted)" style="rounded=0;whiteSpace=wrap;html=1;fontSize=6;fillColor=#f5f5f5;strokeColor=#666666;fontColor=#333333;dashed=1;" parent="NjZC5WjNETesjFtiS9zZ-1" vertex="1">
                    <mxGeometry x="150" y="640" width="40" height="40" as="geometry"/>
                </mxCell>
                <mxCell id="ikAkHZJrHeVKkYMlM8vY-56" value="b&lt;br style=&quot;font-size: 6px&quot;&gt;&lt;b style=&quot;font-size: 6px&quot;&gt;b[b]&lt;/b&gt;" style="rounded=0;whiteSpace=wrap;html=1;strokeColor=#00CC00;fontSize=6;" parent="NjZC5WjNETesjFtiS9zZ-1" vertex="1">
                    <mxGeometry x="150" y="560" width="40" height="40" as="geometry"/>
                </mxCell>
                <mxCell id="ikAkHZJrHeVKkYMlM8vY-57" value="&lt;div style=&quot;font-size: 6px&quot;&gt;10&lt;/div&gt;" style="rounded=0;whiteSpace=wrap;html=1;strokeColor=#666666;fontSize=6;fontColor=#333333;fillColor=none;dashed=1;verticalAlign=top;align=left;spacingTop=-5;" parent="NjZC5WjNETesjFtiS9zZ-1" vertex="1">
                    <mxGeometry x="220" y="540" width="80" height="160" as="geometry"/>
                </mxCell>
                <mxCell id="ikAkHZJrHeVKkYMlM8vY-58" value="a&lt;br style=&quot;font-size: 6px&quot;&gt;&lt;span style=&quot;font-size: 6px&quot;&gt;a[a]&lt;br&gt;&lt;/span&gt;" style="rounded=0;orthogonalLoop=1;jettySize=auto;html=1;endArrow=open;endFill=0;fontSize=6;" parent="NjZC5WjNETesjFtiS9zZ-1" source="ikAkHZJrHeVKkYMlM8vY-60" target="ikAkHZJrHeVKkYMlM8vY-59" edge="1">
                    <mxGeometry relative="1" as="geometry">
                        <mxPoint x="260" y="640" as="targetPoint"/>
                        <mxPoint x="260" y="600" as="sourcePoint"/>
                    </mxGeometry>
                </mxCell>
                <mxCell id="ikAkHZJrHeVKkYMlM8vY-59" value="c&lt;br style=&quot;font-size: 6px&quot;&gt;&lt;b style=&quot;font-size: 6px&quot;&gt;c[a,c]&lt;/b&gt;" style="rounded=0;whiteSpace=wrap;html=1;strokeColor=#00CC00;fontSize=6;" parent="NjZC5WjNETesjFtiS9zZ-1" vertex="1">
                    <mxGeometry x="240" y="640" width="40" height="40" as="geometry"/>
                </mxCell>
                <mxCell id="ikAkHZJrHeVKkYMlM8vY-60" value="(not getted)" style="rounded=0;whiteSpace=wrap;html=1;fontSize=6;fillColor=#f5f5f5;strokeColor=#666666;fontColor=#333333;dashed=1;" parent="NjZC5WjNETesjFtiS9zZ-1" vertex="1">
                    <mxGeometry x="240" y="560" width="40" height="40" as="geometry"/>
                </mxCell>
                <mxCell id="ikAkHZJrHeVKkYMlM8vY-61" value="&lt;div style=&quot;font-size: 6px&quot;&gt;&lt;span style=&quot;font-size: 6px&quot;&gt;11&lt;/span&gt;&lt;/div&gt;" style="rounded=0;whiteSpace=wrap;html=1;strokeColor=#666666;fontSize=6;fontColor=#333333;fillColor=none;dashed=1;verticalAlign=top;align=left;spacingTop=-5;" parent="NjZC5WjNETesjFtiS9zZ-1" vertex="1">
                    <mxGeometry x="310" y="540" width="80" height="160" as="geometry"/>
                </mxCell>
                <mxCell id="ikAkHZJrHeVKkYMlM8vY-62" value="b&lt;br style=&quot;font-size: 6px&quot;&gt;&lt;span style=&quot;font-size: 6px&quot;&gt;&lt;strike&gt;b[b]&lt;/strike&gt;&lt;br&gt;&lt;b&gt;a[a,b]&lt;/b&gt;&lt;br&gt;&lt;/span&gt;" style="rounded=0;orthogonalLoop=1;jettySize=auto;html=1;endArrow=open;endFill=0;fontSize=6;" parent="NjZC5WjNETesjFtiS9zZ-1" source="ikAkHZJrHeVKkYMlM8vY-64" target="ikAkHZJrHeVKkYMlM8vY-63" edge="1">
                    <mxGeometry relative="1" as="geometry">
                        <mxPoint x="350" y="600" as="sourcePoint"/>
                    </mxGeometry>
                </mxCell>
                <mxCell id="ikAkHZJrHeVKkYMlM8vY-63" value="c&lt;br style=&quot;font-size: 6px&quot;&gt;&lt;strike style=&quot;font-size: 6px&quot;&gt;b[b,c]&lt;/strike&gt;&lt;br style=&quot;font-size: 6px&quot;&gt;&lt;b style=&quot;font-size: 6px&quot;&gt;a[a,b,c]&lt;/b&gt;" style="rounded=0;whiteSpace=wrap;html=1;fontSize=6;" parent="NjZC5WjNETesjFtiS9zZ-1" vertex="1">
                    <mxGeometry x="330" y="640" width="40" height="40" as="geometry"/>
                </mxCell>
                <mxCell id="ikAkHZJrHeVKkYMlM8vY-64" value="a&lt;br style=&quot;font-size: 6px&quot;&gt;&lt;b style=&quot;font-size: 6px&quot;&gt;a[a]&lt;/b&gt;" style="rounded=0;whiteSpace=wrap;html=1;strokeColor=#00CC00;fontSize=6;" parent="NjZC5WjNETesjFtiS9zZ-1" vertex="1">
                    <mxGeometry x="330" y="560" width="40" height="40" as="geometry"/>
                </mxCell>
                <mxCell id="ikAkHZJrHeVKkYMlM8vY-65" value="&lt;div style=&quot;font-size: 6px&quot;&gt;&lt;span style=&quot;font-size: 6px&quot;&gt;12&lt;/span&gt;&lt;/div&gt;" style="rounded=0;whiteSpace=wrap;html=1;strokeColor=#666666;fontSize=6;fontColor=#333333;fillColor=none;dashed=1;verticalAlign=top;align=left;spacingTop=-5;" parent="NjZC5WjNETesjFtiS9zZ-1" vertex="1">
                    <mxGeometry x="400" y="540" width="80" height="160" as="geometry"/>
                </mxCell>
                <mxCell id="ikAkHZJrHeVKkYMlM8vY-66" value="b&lt;br style=&quot;font-size: 6px&quot;&gt;&lt;span style=&quot;font-size: 6px&quot;&gt;&lt;b&gt;b[b]&lt;/b&gt;&lt;br&gt;&lt;strike&gt;a[a,b]&lt;/strike&gt;&lt;br&gt;&lt;/span&gt;" style="rounded=0;orthogonalLoop=1;jettySize=auto;html=1;endArrow=open;endFill=0;fontSize=6;" parent="NjZC5WjNETesjFtiS9zZ-1" source="ikAkHZJrHeVKkYMlM8vY-68" target="ikAkHZJrHeVKkYMlM8vY-67" edge="1">
                    <mxGeometry relative="1" as="geometry">
                        <mxPoint x="440" y="600" as="sourcePoint"/>
                    </mxGeometry>
                </mxCell>
                <mxCell id="ikAkHZJrHeVKkYMlM8vY-67" value="c&lt;br style=&quot;font-size: 6px&quot;&gt;&lt;span style=&quot;font-size: 6px&quot;&gt;&lt;b&gt;b[b,c]&lt;/b&gt;&lt;/span&gt;&lt;br style=&quot;font-size: 6px&quot;&gt;&lt;span style=&quot;font-size: 6px&quot;&gt;&lt;strike&gt;a[a,b,c]&lt;/strike&gt;&lt;/span&gt;" style="rounded=0;whiteSpace=wrap;html=1;fontSize=6;" parent="NjZC5WjNETesjFtiS9zZ-1" vertex="1">
                    <mxGeometry x="420" y="640" width="40" height="40" as="geometry"/>
                </mxCell>
                <mxCell id="ikAkHZJrHeVKkYMlM8vY-68" value="a&lt;br&gt;(delete)" style="rounded=0;whiteSpace=wrap;html=1;fontSize=6;strokeColor=#FF0000;" parent="NjZC5WjNETesjFtiS9zZ-1" vertex="1">
                    <mxGeometry x="420" y="560" width="40" height="40" as="geometry"/>
                </mxCell>
                <mxCell id="ikAkHZJrHeVKkYMlM8vY-69" value="&lt;div style=&quot;font-size: 6px&quot;&gt;&lt;span style=&quot;font-size: 6px&quot;&gt;14&lt;/span&gt;&lt;/div&gt;" style="rounded=0;whiteSpace=wrap;html=1;strokeColor=#666666;fontSize=6;fontColor=#333333;fillColor=none;dashed=1;verticalAlign=top;align=left;spacingTop=-5;" parent="NjZC5WjNETesjFtiS9zZ-1" vertex="1">
                    <mxGeometry x="580" y="540" width="80" height="160" as="geometry"/>
                </mxCell>
                <mxCell id="ikAkHZJrHeVKkYMlM8vY-70" value="&lt;span style=&quot;font-size: 6px&quot;&gt;b&lt;br&gt;(delete)&lt;br&gt;&lt;/span&gt;" style="rounded=0;orthogonalLoop=1;jettySize=auto;html=1;endArrow=open;endFill=0;fontSize=6;strokeColor=#FF0000;" parent="NjZC5WjNETesjFtiS9zZ-1" source="ikAkHZJrHeVKkYMlM8vY-72" target="ikAkHZJrHeVKkYMlM8vY-71" edge="1">
                    <mxGeometry relative="1" as="geometry">
                        <mxPoint x="620" y="600" as="sourcePoint"/>
                    </mxGeometry>
                </mxCell>
                <mxCell id="ikAkHZJrHeVKkYMlM8vY-71" value="c&lt;br&gt;&lt;b&gt;c[c]&lt;/b&gt;&lt;br style=&quot;font-size: 6px&quot;&gt;&lt;span style=&quot;font-size: 6px&quot;&gt;&lt;strike&gt;b[b,c]&lt;/strike&gt;&lt;/span&gt;&lt;br style=&quot;font-size: 6px&quot;&gt;&lt;span style=&quot;font-size: 6px&quot;&gt;&lt;strike&gt;a[a,b,c]&lt;/strike&gt;&lt;/span&gt;" style="rounded=0;whiteSpace=wrap;html=1;fontSize=6;" parent="NjZC5WjNETesjFtiS9zZ-1" vertex="1">
                    <mxGeometry x="600" y="640" width="40" height="40" as="geometry"/>
                </mxCell>
                <mxCell id="ikAkHZJrHeVKkYMlM8vY-72" value="a&lt;br&gt;(not exists)" style="rounded=0;whiteSpace=wrap;html=1;fontSize=6;fillColor=#f5f5f5;strokeColor=#666666;fontColor=#333333;dashed=1;" parent="NjZC5WjNETesjFtiS9zZ-1" vertex="1">
                    <mxGeometry x="600" y="560" width="40" height="40" as="geometry"/>
                </mxCell>
                <mxCell id="ikAkHZJrHeVKkYMlM8vY-73" value="&lt;div style=&quot;font-size: 6px&quot;&gt;&lt;span style=&quot;font-size: 6px&quot;&gt;13&lt;/span&gt;&lt;/div&gt;" style="rounded=0;whiteSpace=wrap;html=1;strokeColor=#666666;fontSize=6;fontColor=#333333;fillColor=none;dashed=1;verticalAlign=top;align=left;spacingTop=-5;" parent="NjZC5WjNETesjFtiS9zZ-1" vertex="1">
                    <mxGeometry x="490" y="540" width="80" height="160" as="geometry"/>
                </mxCell>
                <mxCell id="ikAkHZJrHeVKkYMlM8vY-74" value="b&lt;br style=&quot;font-size: 6px&quot;&gt;&lt;span style=&quot;font-size: 6px&quot;&gt;b[b]&lt;br&gt;&lt;/span&gt;" style="rounded=0;orthogonalLoop=1;jettySize=auto;html=1;endArrow=open;endFill=0;fontSize=6;" parent="NjZC5WjNETesjFtiS9zZ-1" source="ikAkHZJrHeVKkYMlM8vY-76" target="ikAkHZJrHeVKkYMlM8vY-75" edge="1">
                    <mxGeometry relative="1" as="geometry">
                        <mxPoint x="530" y="600" as="sourcePoint"/>
                    </mxGeometry>
                </mxCell>
                <mxCell id="ikAkHZJrHeVKkYMlM8vY-75" value="c&lt;br style=&quot;font-size: 6px&quot;&gt;(delete)" style="rounded=0;whiteSpace=wrap;html=1;fontSize=6;strokeColor=#FF0000;" parent="NjZC5WjNETesjFtiS9zZ-1" vertex="1">
                    <mxGeometry x="510" y="640" width="40" height="40" as="geometry"/>
                </mxCell>
                <mxCell id="ikAkHZJrHeVKkYMlM8vY-76" value="a&lt;br&gt;(delete)" style="rounded=0;whiteSpace=wrap;html=1;fontSize=6;strokeColor=#FF0000;" parent="NjZC5WjNETesjFtiS9zZ-1" vertex="1">
                    <mxGeometry x="510" y="560" width="40" height="40" as="geometry"/>
                </mxCell>
                <mxCell id="ikAkHZJrHeVKkYMlM8vY-110" value="" style="endArrow=open;html=1;labelBackgroundColor=none;fontSize=7;align=center;startArrow=ERone;startFill=0;endFill=0;strokeColor=#009900;" parent="NjZC5WjNETesjFtiS9zZ-1" source="ikAkHZJrHeVKkYMlM8vY-111" target="ikAkHZJrHeVKkYMlM8vY-113" edge="1">
                    <mxGeometry width="50" height="50" relative="1" as="geometry">
                        <mxPoint x="140" y="740" as="sourcePoint"/>
                        <mxPoint x="130" y="810" as="targetPoint"/>
                        <Array as="points">
                            <mxPoint x="100" y="780"/>
                        </Array>
                    </mxGeometry>
                </mxCell>
                <mxCell id="ikAkHZJrHeVKkYMlM8vY-111" value="" style="ellipse;whiteSpace=wrap;html=1;aspect=fixed;rounded=1;fontSize=7;strokeColor=#009900;" parent="NjZC5WjNETesjFtiS9zZ-1" vertex="1">
                    <mxGeometry x="90" y="770" width="20" height="20" as="geometry"/>
                </mxCell>
                <mxCell id="ikAkHZJrHeVKkYMlM8vY-112" value="" style="endArrow=none;html=1;labelBackgroundColor=none;fontSize=7;align=center;startArrow=ERone;startFill=0;endFill=0;strokeColor=#009900;" parent="NjZC5WjNETesjFtiS9zZ-1" target="ikAkHZJrHeVKkYMlM8vY-111" edge="1">
                    <mxGeometry width="50" height="50" relative="1" as="geometry">
                        <mxPoint x="140" y="740" as="sourcePoint"/>
                        <mxPoint x="140" y="820" as="targetPoint"/>
                        <Array as="points"/>
                    </mxGeometry>
                </mxCell>
                <mxCell id="ikAkHZJrHeVKkYMlM8vY-113" value="" style="ellipse;whiteSpace=wrap;html=1;aspect=fixed;rounded=1;fontSize=7;" parent="NjZC5WjNETesjFtiS9zZ-1" vertex="1">
                    <mxGeometry x="130" y="810" width="20" height="20" as="geometry"/>
                </mxCell>
                <mxCell id="ikAkHZJrHeVKkYMlM8vY-114" value="" style="ellipse;whiteSpace=wrap;html=1;aspect=fixed;rounded=1;fontSize=7;strokeColor=#007FFF;" parent="NjZC5WjNETesjFtiS9zZ-1" vertex="1">
                    <mxGeometry x="170" y="850" width="20" height="20" as="geometry"/>
                </mxCell>
                <mxCell id="ikAkHZJrHeVKkYMlM8vY-115" value="" style="endArrow=none;html=1;labelBackgroundColor=none;fontSize=7;align=center;startArrow=ERone;startFill=0;endFill=0;strokeColor=#007FFF;" parent="NjZC5WjNETesjFtiS9zZ-1" source="ikAkHZJrHeVKkYMlM8vY-113" target="ikAkHZJrHeVKkYMlM8vY-114" edge="1">
                    <mxGeometry width="50" height="50" relative="1" as="geometry">
                        <mxPoint x="130" y="750" as="sourcePoint"/>
                        <mxPoint x="114.47213595499954" y="781.0557280900007" as="targetPoint"/>
                        <Array as="points"/>
                    </mxGeometry>
                </mxCell>
                <mxCell id="ikAkHZJrHeVKkYMlM8vY-116" value="" style="endArrow=open;html=1;labelBackgroundColor=none;fontSize=7;align=center;startArrow=ERone;startFill=0;endFill=0;strokeColor=#007FFF;" parent="NjZC5WjNETesjFtiS9zZ-1" source="ikAkHZJrHeVKkYMlM8vY-114" edge="1">
                    <mxGeometry width="50" height="50" relative="1" as="geometry">
                        <mxPoint x="110" y="790" as="sourcePoint"/>
                        <mxPoint x="140" y="900" as="targetPoint"/>
                        <Array as="points"/>
                    </mxGeometry>
                </mxCell>
                <mxCell id="ikAkHZJrHeVKkYMlM8vY-117" value="" style="endArrow=none;html=1;labelBackgroundColor=none;fontSize=7;align=center;startArrow=ERone;startFill=0;endFill=0;strokeColor=#009900;" parent="NjZC5WjNETesjFtiS9zZ-1" source="ikAkHZJrHeVKkYMlM8vY-125" target="ikAkHZJrHeVKkYMlM8vY-113" edge="1">
                    <mxGeometry width="50" height="50" relative="1" as="geometry">
                        <mxPoint x="150" y="780" as="sourcePoint"/>
                        <mxPoint x="182.92893218813447" y="862.9289321881345" as="targetPoint"/>
                        <Array as="points"/>
                    </mxGeometry>
                </mxCell>
                <mxCell id="ikAkHZJrHeVKkYMlM8vY-118" value="" style="endArrow=open;html=1;labelBackgroundColor=none;fontSize=7;align=center;startArrow=none;startFill=0;endFill=0;strokeColor=#007FFF;" parent="NjZC5WjNETesjFtiS9zZ-1" source="ikAkHZJrHeVKkYMlM8vY-120" target="ikAkHZJrHeVKkYMlM8vY-123" edge="1">
                    <mxGeometry width="50" height="50" relative="1" as="geometry">
                        <mxPoint x="175.52786404500046" y="868.9442719099993" as="sourcePoint"/>
                        <mxPoint x="100" y="860" as="targetPoint"/>
                        <Array as="points"/>
                    </mxGeometry>
                </mxCell>
                <mxCell id="ikAkHZJrHeVKkYMlM8vY-119" value="" style="ellipse;whiteSpace=wrap;html=1;aspect=fixed;rounded=1;fontSize=7;strokeColor=#007FFF;" parent="NjZC5WjNETesjFtiS9zZ-1" vertex="1">
                    <mxGeometry x="90" y="850" width="20" height="20" as="geometry"/>
                </mxCell>
                <mxCell id="ikAkHZJrHeVKkYMlM8vY-120" value="" style="ellipse;whiteSpace=wrap;html=1;aspect=fixed;rounded=1;fontSize=7;" parent="NjZC5WjNETesjFtiS9zZ-1" vertex="1">
                    <mxGeometry x="290" y="810" width="20" height="20" as="geometry"/>
                </mxCell>
                <mxCell id="ikAkHZJrHeVKkYMlM8vY-121" value="" style="endArrow=none;html=1;labelBackgroundColor=none;fontSize=7;align=center;startArrow=ERone;startFill=0;endFill=0;strokeColor=#009900;" parent="NjZC5WjNETesjFtiS9zZ-1" source="ikAkHZJrHeVKkYMlM8vY-122" target="ikAkHZJrHeVKkYMlM8vY-120" edge="1">
                    <mxGeometry width="50" height="50" relative="1" as="geometry">
                        <mxPoint x="343" y="780" as="sourcePoint"/>
                        <mxPoint x="342.92893218813447" y="862.9289321881345" as="targetPoint"/>
                        <Array as="points"/>
                    </mxGeometry>
                </mxCell>
                <mxCell id="ikAkHZJrHeVKkYMlM8vY-122" value="" style="ellipse;whiteSpace=wrap;html=1;aspect=fixed;rounded=1;fontSize=7;strokeColor=#009900;" parent="NjZC5WjNETesjFtiS9zZ-1" vertex="1">
                    <mxGeometry x="330" y="770" width="20" height="20" as="geometry"/>
                </mxCell>
                <mxCell id="ikAkHZJrHeVKkYMlM8vY-123" value="" style="ellipse;whiteSpace=wrap;html=1;aspect=fixed;rounded=1;fontSize=7;strokeColor=#007FFF;" parent="NjZC5WjNETesjFtiS9zZ-1" vertex="1">
                    <mxGeometry x="250" y="850" width="20" height="20" as="geometry"/>
                </mxCell>
                <mxCell id="ikAkHZJrHeVKkYMlM8vY-124" value="" style="endArrow=open;html=1;labelBackgroundColor=none;fontSize=7;align=center;startArrow=none;startFill=0;endFill=0;strokeColor=#007FFF;" parent="NjZC5WjNETesjFtiS9zZ-1" source="ikAkHZJrHeVKkYMlM8vY-113" target="ikAkHZJrHeVKkYMlM8vY-119" edge="1">
                    <mxGeometry width="50" height="50" relative="1" as="geometry">
                        <mxPoint x="175.52786404500046" y="868.9442719099993" as="sourcePoint"/>
                        <mxPoint x="100" y="860" as="targetPoint"/>
                        <Array as="points"/>
                    </mxGeometry>
                </mxCell>
                <mxCell id="ikAkHZJrHeVKkYMlM8vY-125" value="" style="ellipse;whiteSpace=wrap;html=1;aspect=fixed;rounded=1;fontSize=7;strokeColor=#009900;" parent="NjZC5WjNETesjFtiS9zZ-1" vertex="1">
                    <mxGeometry x="170" y="770" width="20" height="20" as="geometry"/>
                </mxCell>
                <mxCell id="ikAkHZJrHeVKkYMlM8vY-126" value="" style="endArrow=open;html=1;labelBackgroundColor=none;fontSize=7;align=center;startArrow=none;startFill=0;endFill=0;" parent="NjZC5WjNETesjFtiS9zZ-1" source="ikAkHZJrHeVKkYMlM8vY-127" target="ikAkHZJrHeVKkYMlM8vY-130" edge="1">
                    <mxGeometry width="50" height="50" relative="1" as="geometry">
                        <mxPoint x="295.52786404500046" y="868.9442719099993" as="sourcePoint"/>
                        <mxPoint x="220" y="860" as="targetPoint"/>
                        <Array as="points"/>
                    </mxGeometry>
                </mxCell>
                <mxCell id="ikAkHZJrHeVKkYMlM8vY-127" value="" style="ellipse;whiteSpace=wrap;html=1;aspect=fixed;rounded=1;fontSize=7;fillColor=#f8cecc;strokeColor=#b85450;" parent="NjZC5WjNETesjFtiS9zZ-1" vertex="1">
                    <mxGeometry x="410" y="810" width="20" height="20" as="geometry"/>
                </mxCell>
                <mxCell id="ikAkHZJrHeVKkYMlM8vY-128" value="" style="endArrow=none;html=1;labelBackgroundColor=none;fontSize=7;align=center;startArrow=ERone;startFill=0;endFill=0;" parent="NjZC5WjNETesjFtiS9zZ-1" source="ikAkHZJrHeVKkYMlM8vY-129" target="ikAkHZJrHeVKkYMlM8vY-127" edge="1">
                    <mxGeometry width="50" height="50" relative="1" as="geometry">
                        <mxPoint x="463" y="780" as="sourcePoint"/>
                        <mxPoint x="462.92893218813447" y="862.9289321881345" as="targetPoint"/>
                        <Array as="points"/>
                    </mxGeometry>
                </mxCell>
                <mxCell id="ikAkHZJrHeVKkYMlM8vY-129" value="" style="ellipse;whiteSpace=wrap;html=1;aspect=fixed;rounded=1;fontSize=7;" parent="NjZC5WjNETesjFtiS9zZ-1" vertex="1">
                    <mxGeometry x="410" y="770" width="20" height="20" as="geometry"/>
                </mxCell>
                <mxCell id="ikAkHZJrHeVKkYMlM8vY-130" value="" style="ellipse;whiteSpace=wrap;html=1;aspect=fixed;rounded=1;fontSize=7;fillColor=#d5e8d4;strokeColor=#82b366;" parent="NjZC5WjNETesjFtiS9zZ-1" vertex="1">
                    <mxGeometry x="410" y="850" width="20" height="20" as="geometry"/>
                </mxCell>
                <mxCell id="ikAkHZJrHeVKkYMlM8vY-131" value="" style="endArrow=open;html=1;labelBackgroundColor=none;fontSize=7;align=center;startArrow=none;startFill=0;endFill=0;" parent="NjZC5WjNETesjFtiS9zZ-1" source="ikAkHZJrHeVKkYMlM8vY-132" target="ikAkHZJrHeVKkYMlM8vY-135" edge="1">
                    <mxGeometry width="50" height="50" relative="1" as="geometry">
                        <mxPoint x="375.52786404500046" y="868.9442719099993" as="sourcePoint"/>
                        <mxPoint x="300" y="860" as="targetPoint"/>
                        <Array as="points"/>
                    </mxGeometry>
                </mxCell>
                <mxCell id="ikAkHZJrHeVKkYMlM8vY-132" value="" style="ellipse;whiteSpace=wrap;html=1;aspect=fixed;rounded=1;fontSize=7;fillColor=#d5e8d4;strokeColor=#82b366;" parent="NjZC5WjNETesjFtiS9zZ-1" vertex="1">
                    <mxGeometry x="490" y="810" width="20" height="20" as="geometry"/>
                </mxCell>
                <mxCell id="ikAkHZJrHeVKkYMlM8vY-133" value="" style="endArrow=none;html=1;labelBackgroundColor=none;fontSize=7;align=center;startArrow=ERone;startFill=0;endFill=0;" parent="NjZC5WjNETesjFtiS9zZ-1" source="ikAkHZJrHeVKkYMlM8vY-134" target="ikAkHZJrHeVKkYMlM8vY-132" edge="1">
                    <mxGeometry width="50" height="50" relative="1" as="geometry">
                        <mxPoint x="543" y="780" as="sourcePoint"/>
                        <mxPoint x="542.9289321881345" y="862.9289321881345" as="targetPoint"/>
                        <Array as="points"/>
                    </mxGeometry>
                </mxCell>
                <mxCell id="ikAkHZJrHeVKkYMlM8vY-134" value="" style="ellipse;whiteSpace=wrap;html=1;aspect=fixed;rounded=1;fontSize=7;fillColor=#f8cecc;strokeColor=#b85450;" parent="NjZC5WjNETesjFtiS9zZ-1" vertex="1">
                    <mxGeometry x="490" y="770" width="20" height="20" as="geometry"/>
                </mxCell>
                <mxCell id="ikAkHZJrHeVKkYMlM8vY-135" value="" style="ellipse;whiteSpace=wrap;html=1;aspect=fixed;rounded=1;fontSize=7;" parent="NjZC5WjNETesjFtiS9zZ-1" vertex="1">
                    <mxGeometry x="490" y="850" width="20" height="20" as="geometry"/>
                </mxCell>
                <mxCell id="ikAkHZJrHeVKkYMlM8vY-136" value="" style="ellipse;whiteSpace=wrap;html=1;aspect=fixed;rounded=1;fontSize=7;fillColor=#d5e8d4;strokeColor=#82b366;" parent="NjZC5WjNETesjFtiS9zZ-1" vertex="1">
                    <mxGeometry x="440" y="840" width="20" height="20" as="geometry"/>
                </mxCell>
                <mxCell id="ikAkHZJrHeVKkYMlM8vY-137" value="" style="endArrow=none;html=1;labelBackgroundColor=none;fontSize=7;align=center;startArrow=ERone;startFill=0;endFill=0;" parent="NjZC5WjNETesjFtiS9zZ-1" source="ikAkHZJrHeVKkYMlM8vY-127" target="ikAkHZJrHeVKkYMlM8vY-136" edge="1">
                    <mxGeometry width="50" height="50" relative="1" as="geometry">
                        <mxPoint x="463" y="780" as="sourcePoint"/>
                        <mxPoint x="462.92893218813447" y="862.9289321881345" as="targetPoint"/>
                        <Array as="points"/>
                    </mxGeometry>
                </mxCell>
                <mxCell id="ikAkHZJrHeVKkYMlM8vY-138" value="" style="ellipse;whiteSpace=wrap;html=1;aspect=fixed;rounded=1;fontSize=7;" parent="NjZC5WjNETesjFtiS9zZ-1" vertex="1">
                    <mxGeometry x="380" y="780" width="20" height="20" as="geometry"/>
                </mxCell>
                <mxCell id="ikAkHZJrHeVKkYMlM8vY-139" value="" style="endArrow=open;html=1;labelBackgroundColor=none;fontSize=7;align=center;startArrow=none;startFill=0;endFill=0;" parent="NjZC5WjNETesjFtiS9zZ-1" source="ikAkHZJrHeVKkYMlM8vY-138" target="ikAkHZJrHeVKkYMlM8vY-127" edge="1">
                    <mxGeometry width="50" height="50" relative="1" as="geometry">
                        <mxPoint x="420" y="830" as="sourcePoint"/>
                        <mxPoint x="410" y="800" as="targetPoint"/>
                        <Array as="points"/>
                    </mxGeometry>
                </mxCell>
            </root>
        </mxGraphModel>
    </diagram>
</mxfile>